<?xml version="1.0" encoding="iso-8859-1"?>
<!-- Uploaded to: SVG Repo, www.svgrepo.com, Generator: SVG Repo Mixer Tools -->
<svg height="800px" width="800px" version="1.1" id="Layer_1" xmlns="http://www.w3.org/2000/svg" xmlns:xlink="http://www.w3.org/1999/xlink" 
	 viewBox="0 0 512.001 512.001" xml:space="preserve">
<path style="fill:#CFF09E;" d="M285.792,328.774c0-58.717,47.599-106.316,106.316-106.316c7.124,0,14.08,0.714,20.812,2.05
	c2.964-10.219,4.579-21.011,4.579-32.187c0-63.739-51.671-115.41-115.411-115.41c-45.413,0-84.67,26.248-103.507,64.385
	c-14.531-13.426-33.95-21.64-55.294-21.64c-45.018,0-81.512,36.494-81.512,81.512c0,44.562,35.763,80.748,80.151,81.477
	c-0.456,0.008-0.907,0.034-1.364,0.034c-36.146,0-66.776-23.535-77.454-56.11c-29.277,13.884-49.53,43.7-49.53,78.255l0,0
	c0,47.811,38.759,86.57,86.57,86.57H306.21C293.381,373.828,285.792,352.192,285.792,328.774z"/>
<g>
	<path style="fill:#507C5C;" d="M484.618,252.505c-4.772-5.784-13.33-6.6-19.113-1.83c-5.782,4.774-6.602,13.33-1.83,19.113
		c13.653,16.543,21.172,37.491,21.172,58.986c0,51.136-41.603,92.739-92.739,92.739c-46.34,0-84.851-34.165-91.668-78.627
		c-0.001-0.011-0.003-0.023-0.004-0.034c-0.21-1.374-0.38-2.762-0.53-4.156c-0.038-0.354-0.071-0.709-0.105-1.063
		c-0.105-1.101-0.187-2.208-0.254-3.32c-0.023-0.395-0.052-0.79-0.069-1.185c-0.067-1.443-0.11-2.893-0.11-4.354
		c0-51.137,41.603-92.74,92.739-92.74c6.067,0,12.181,0.601,18.17,1.789c6.911,1.371,13.718-2.771,15.68-9.534
		c3.396-11.706,5.117-23.807,5.117-35.968c0-71.125-57.863-128.988-128.986-128.988c-43.922,0-83.811,21.765-107.536,57.746
		c-15.203-9.756-32.921-15.002-51.266-15.002c-52.432,0-95.089,42.657-95.089,95.089c0,5.803,0.519,11.531,1.531,17.127
		C19.265,236.109,0,269.201,0,304.826c0,55.221,44.926,100.147,100.147,100.147H299.61c22.008,26.669,55.302,43.696,92.499,43.696
		c66.109,0,119.893-53.783,119.893-119.893C512,300.987,502.276,273.902,484.618,252.505z M282.674,377.819H100.147
		c-40.248,0-72.993-32.745-72.993-72.993c0-23.271,11.28-45.059,29.607-58.679c16.329,30.523,48.241,50.111,83.8,50.111
		c0.418,0,0.834-0.012,1.248-0.027l0.314-0.009c7.416-0.109,13.372-6.146,13.379-13.562c0.007-7.417-5.938-13.467-13.353-13.589
		c-36.831-0.604-66.796-31.065-66.796-67.902c0-37.46,30.476-67.936,67.936-67.936c17.128,0,33.494,6.406,46.08,18.035
		c3.144,2.905,7.474,4.16,11.686,3.378c4.21-0.779,7.805-3.499,9.702-7.337c17.31-35.049,52.309-56.822,91.334-56.822
		c56.151,0,101.833,45.682,101.833,101.834c0,5.704-0.481,11.394-1.432,17.01c-3.458-0.301-6.926-0.452-10.381-0.452
		c-66.109,0-119.893,53.783-119.893,119.894c0,1.047,0.014,2.091,0.041,3.132c0.015,0.603,0.045,1.202,0.069,1.803
		c0.018,0.426,0.029,0.854,0.05,1.279c0.042,0.84,0.1,1.679,0.16,2.517c0.012,0.172,0.02,0.346,0.034,0.519
		C273.621,351.877,277.035,365.287,282.674,377.819z"/>
	<path style="fill:#507C5C;" d="M433.359,315.198h-27.675v-27.676c0-7.497-6.078-13.577-13.577-13.577s-13.577,6.08-13.577,13.577
		v27.676h-27.675c-7.498,0-13.577,6.08-13.577,13.577c0,7.497,6.078,13.577,13.577,13.577h27.675v27.675
		c0,7.497,6.078,13.577,13.577,13.577s13.577-6.08,13.577-13.577v-27.675h27.675c7.498,0,13.577-6.08,13.577-13.577
		C446.936,321.278,440.858,315.198,433.359,315.198z"/>
</g>
</svg>