<?xml version="1.0" standalone="no"?>
<!DOCTYPE svg PUBLIC "-//W3C//DTD SVG 20010904//EN"
 "http://www.w3.org/TR/2001/REC-SVG-20010904/DTD/svg10.dtd">
<svg version="1.0" xmlns="http://www.w3.org/2000/svg"
 width="183.000000pt" height="183.000000pt" viewBox="0 0 183.000000 183.000000"
 preserveAspectRatio="xMidYMid meet">
<metadata>
Created by potrace 1.14, written by Peter Selinger 2001-2017
</metadata>
<g transform="translate(0.000000,183.000000) scale(0.100000,-0.100000)"
fill="#000000" stroke="none">
<path d="M1262 1818 c-58 -10 -93 -33 -128 -83 -29 -43 -29 -43 -49 -25 -11
11 -36 25 -55 33 -42 17 -189 23 -191 8 -21 -178 48 -280 192 -284 l48 -1 -33
-22 c-41 -28 -66 -80 -69 -142 -2 -42 0 -47 22 -50 37 -6 68 6 106 39 20 18
37 30 38 28 1 -2 17 -33 34 -69 18 -36 59 -110 91 -165 136 -235 179 -394 147
-549 -50 -239 -266 -417 -508 -418 -85 0 -136 18 -185 65 -69 66 -98 171 -72
262 15 55 78 128 132 156 22 11 76 27 120 35 100 19 139 36 187 79 55 50 85
124 78 195 -6 71 -39 149 -80 188 -148 141 -453 113 -628 -58 -221 -218 -225
-621 -7 -840 116 -117 269 -183 427 -183 101 0 140 6 222 33 184 62 346 240
393 431 9 36 16 103 16 148 0 135 -32 230 -132 394 -26 43 -48 80 -48 82 0 1
18 5 40 9 43 7 95 46 122 94 18 29 17 30 -6 46 -56 36 -169 26 -206 -20 -17
-20 -25 -18 -38 11 -18 38 -16 41 31 43 100 6 166 77 176 189 10 118 12 116
-75 111 -89 -6 -141 -35 -171 -97 -24 -49 -33 -44 -33 19 0 46 1 47 39 59 49
14 105 67 120 113 6 19 12 58 14 86 2 58 -6 63 -81 50z m31 -80 c-10 -69 -68
-128 -124 -128 -19 0 -21 4 -16 40 8 64 61 117 119 119 24 1 26 -2 21 -31z
m-262 -44 c49 -29 72 -67 77 -129 l4 -55 -58 0 c-106 0 -163 48 -174 145 -3
31 -5 57 -3 59 11 11 127 -5 154 -20z m372 -208 c-5 -88 -54 -140 -141 -149
l-43 -4 5 54 c10 96 68 156 146 151 l35 -3 -2 -49z m-283 -85 c0 -34 -31 -76
-71 -96 -27 -15 -29 -14 -29 4 0 44 25 86 65 109 30 17 35 15 35 -17z m314
-180 c8 -12 -37 -50 -70 -59 -37 -10 -76 -4 -71 11 12 37 125 75 141 48z
m-465 -227 c57 -47 50 -137 -13 -175 -72 -44 -163 -1 -167 78 -3 53 1 65 32
94 42 39 104 40 148 3z"/>
<path d="M841 467 c-110 -56 -67 -233 56 -229 76 3 131 66 120 137 -14 85
-101 131 -176 92z"/>
</g>
</svg>
